<svg width="60" height="52" viewBox="0 0 60 52" fill="none" xmlns="http://www.w3.org/2000/svg">
<g filter="url(#filter0_d_63_20)">
<path d="M42.676 39.1089C43.3183 39.5755 40.9016 42.1286 35.4618 40.5117C29.7705 38.8199 26.5908 34.7966 25.1035 32.3027C24.4689 31.2386 25.1508 29.982 26.3683 29.7527L32.1729 28.6593C33.3215 28.4429 34.4169 29.2514 34.6232 30.4019C35.0186 32.6066 35.818 35.8931 37.2112 37.1751C38.8883 38.7183 42.0337 38.6423 42.676 39.1089Z" fill="#562D8A"/>
<path d="M42.6784 38.7477C43.3207 39.2143 41.8001 41.4815 36.3604 39.8645C30.7172 38.1871 28.0264 34.6415 26.8507 32.4308C26.3168 31.427 26.969 30.3133 28.0799 30.0714L32.5676 29.0943C33.7163 28.8442 34.846 29.6329 35.1425 30.7705C35.6443 32.6957 36.654 35.4445 38.54 36.9468C42.0431 39.7371 42.0361 38.2811 42.6784 38.7477Z" fill="url(#paint0_linear_63_20)"/>
<path d="M47.8267 9.96261C48.4885 9.52411 50.0349 12.6813 46.6172 17.2117C43.0413 21.9516 38.1599 23.523 35.3033 24.0439C34.0845 24.2661 33.1458 23.1877 33.3569 21.9669L34.3631 16.1466C34.5622 14.9949 35.7028 14.2515 36.8528 14.4607C39.0565 14.8615 42.415 15.2624 44.1034 14.4056C46.1357 13.3744 47.1649 10.4011 47.8267 9.96261Z" fill="#562D8A"/>
<path d="M47.4892 9.83404C48.151 9.39553 49.743 11.6131 46.3252 16.1435C42.7797 20.8434 38.5169 22.1238 36.0346 22.4519C34.9074 22.6009 34.0922 21.6003 34.2542 20.475L34.9088 15.929C35.0763 14.7654 36.2103 13.983 37.3797 14.1032C39.3588 14.3065 42.2872 14.3223 44.3543 13.0809C48.1938 10.7752 46.8274 10.2725 47.4892 9.83404Z" fill="url(#paint1_linear_63_20)"/>
<path d="M51.7687 23.2642C52.5582 23.1812 52.4708 26.6956 47.3464 29.1341C41.9851 31.6854 36.93 30.8234 34.1559 29.9654C32.9723 29.5993 32.6381 28.2092 33.3894 27.2241L36.9712 22.5273C37.68 21.5979 39.0349 21.4658 39.9581 22.1826C41.7273 23.5563 44.5205 25.4637 46.4137 25.4841C48.6926 25.5086 50.9792 23.3473 51.7687 23.2642Z" fill="#562D8A"/>
<path d="M51.5288 22.9943C52.3183 22.9112 52.7055 25.6135 47.5811 28.052C42.2651 30.5817 37.893 29.7475 35.54 28.8915C34.4715 28.5028 34.2109 27.2387 34.8746 26.3156L37.5556 22.5865C38.2419 21.632 39.6091 21.4621 40.5907 22.109C42.2519 23.2038 44.8415 24.5709 47.2484 24.4252C51.7187 24.1545 50.7392 23.0773 51.5288 22.9943Z" fill="url(#paint2_linear_63_20)"/>
<path d="M19.731 2.01615C19.4815 1.26247 16.3149 2.7896 16.2034 8.4635C16.0867 14.3998 18.9542 18.6512 20.8786 20.8257C21.6996 21.7535 23.104 21.4854 23.6923 20.3951L26.497 15.1968C27.052 14.1682 26.6143 12.879 25.5809 12.333C23.6005 11.2867 20.712 9.52691 19.9136 7.81012C18.9527 5.74357 19.9804 2.76983 19.731 2.01615Z" fill="#562D8A"/>
<path d="M20.0758 2.12357C19.8263 1.36989 17.2044 2.13006 17.0929 7.80395C16.9771 13.69 19.5379 17.3306 21.2871 19.1222C22.0814 19.9357 23.3406 19.6526 23.9085 18.6676L26.2024 14.6886C26.7895 13.6702 26.3812 12.3543 25.3874 11.7263C23.7056 10.6635 21.3933 8.86666 20.5348 6.61342C18.9403 2.42834 20.3253 2.87726 20.0758 2.12357Z" fill="url(#paint3_linear_63_20)"/>
<path d="M8.74555 12.7881C8.09822 12.3285 6.45084 15.4342 9.72076 20.0724C13.1419 24.9252 17.9701 26.6531 20.8085 27.2658C22.0195 27.5272 22.9924 26.4796 22.8208 25.2526L22.0028 19.4029C21.8409 18.2454 20.7248 17.4657 19.5688 17.6376C17.3533 17.9672 13.9836 18.2596 12.3237 17.3489C10.3256 16.2526 9.39287 13.2477 8.74555 12.7881Z" fill="#562D8A"/>
<path d="M9.08703 12.6705C8.43971 12.2109 6.77706 14.376 10.047 19.0142C13.4392 23.8259 17.6585 25.2431 20.1289 25.6511C21.2507 25.8363 22.0978 24.8625 21.9721 23.7325L21.4644 19.1678C21.3345 17.9995 20.2263 17.1809 19.0536 17.2633C17.069 17.4027 14.1416 17.3241 12.1156 16.0167C8.35247 13.5885 9.73436 13.1301 9.08703 12.6705Z" fill="url(#paint4_linear_63_20)"/>
<path d="M6.62195 29.5471C5.83526 29.6538 6.75441 33.0471 12.3111 34.1996C18.1249 35.4053 22.8309 33.368 25.3221 31.8761C26.3849 31.2395 26.3795 29.8098 25.4159 29.0311L20.8216 25.3188C19.9125 24.5843 18.5649 24.7775 17.8382 25.6929C16.4457 27.4474 14.1851 29.9633 12.3508 30.4324C10.1428 30.9972 7.40864 29.4404 6.62195 29.5471Z" fill="#562D8A"/>
<path d="M6.79092 29.2279C6.00422 29.3346 6.26957 32.0516 11.8263 33.204C17.5909 34.3996 21.64 32.5515 23.7226 31.1614C24.6682 30.5302 24.6214 29.2404 23.7575 28.5011L20.2679 25.515C19.3747 24.7507 18.0063 24.9102 17.2063 25.7716C15.8524 27.2295 13.6613 29.1722 11.2886 29.6019C6.8818 30.4001 7.57761 29.1212 6.79092 29.2279Z" fill="url(#paint5_linear_63_20)"/>
<path d="M33.5869 2.36774C34.4604 0.405655 35.9895 1.68582 36.0905 7.08078C36.2007 12.9665 36.1206 18.008 36.0364 21.1537C35.9952 22.6924 34.299 23.5731 33.0038 22.7415L27.1356 18.9735C26.2689 18.417 25.9655 17.2955 26.4366 16.3796C27.458 14.394 29.1825 11.0462 30.1995 9.09889C31.3665 6.86425 32.7134 4.32983 33.5869 2.36774Z" fill="#562D8A"/>
<path d="M34.1022 1.96148C34.9046 0.189206 35.5117 3.80605 35.473 8.62056C35.4322 13.7033 35.2556 18.0844 35.1114 20.909C35.034 22.427 33.3532 23.2696 32.0765 22.4448L27.6641 19.5937C26.7989 19.0347 26.4995 17.9105 26.9735 16.9959C27.9124 15.1843 29.423 12.2736 30.3236 10.5602C31.3866 8.5377 33.2997 3.73374 34.1022 1.96148Z" fill="#34B039"/>
<circle cx="29.0492" cy="20.4402" r="11.4224" fill="#34B039"/>
<ellipse cx="28.448" cy="19.7388" rx="10.6209" ry="10.3203" fill="url(#paint6_radial_63_20)"/>
<circle cx="26.7447" cy="19.7388" r="8.31634" fill="#C3DCE1"/>
<ellipse cx="26.1435" cy="19.338" rx="7.71516" ry="7.91555" fill="#E2FAFF"/>
<path fill-rule="evenodd" clip-rule="evenodd" d="M20.0315 17.2339C21.3596 17.2339 22.4362 16.1572 22.4362 14.8291C22.4362 14.5555 22.3905 14.2925 22.3063 14.0475C22.9295 13.7768 23.6172 13.6268 24.34 13.6268C27.1622 13.6268 29.45 15.9146 29.45 18.7368C29.45 21.559 27.1622 23.8468 24.34 23.8468C21.5178 23.8468 19.2299 21.559 19.2299 18.7368C19.2299 18.1899 19.3158 17.6631 19.4749 17.1691C19.6535 17.2115 19.8399 17.2339 20.0315 17.2339Z" fill="#202020"/>
</g>
<defs>
<filter id="filter0_d_63_20" x="-7.62939e-06" y="0" width="59.2992" height="52" filterUnits="userSpaceOnUse" color-interpolation-filters="sRGB">
<feFlood flood-opacity="0" result="BackgroundImageFix"/>
<feColorMatrix in="SourceAlpha" type="matrix" values="0 0 0 0 0 0 0 0 0 0 0 0 0 0 0 0 0 0 127 0" result="hardAlpha"/>
<feOffset dy="4"/>
<feGaussianBlur stdDeviation="2"/>
<feComposite in2="hardAlpha" operator="out"/>
<feColorMatrix type="matrix" values="0 0 0 0 0 0 0 0 0 0 0 0 0 0 0 0 0 0 0.25 0"/>
<feBlend mode="normal" in2="BackgroundImageFix" result="effect1_dropShadow_63_20"/>
<feBlend mode="normal" in="SourceGraphic" in2="effect1_dropShadow_63_20" result="shape"/>
</filter>
<linearGradient id="paint0_linear_63_20" x1="40.1711" y1="40.3793" x2="33.0225" y2="28.8501" gradientUnits="userSpaceOnUse">
<stop offset="0.755208" stop-color="#34B039"/>
<stop offset="1" stop-color="#216C24"/>
</linearGradient>
<linearGradient id="paint1_linear_63_20" x1="48.1406" y1="12.7537" x2="34.8391" y2="15.4174" gradientUnits="userSpaceOnUse">
<stop offset="0.755208" stop-color="#34B039"/>
<stop offset="1" stop-color="#216C24"/>
</linearGradient>
<linearGradient id="paint2_linear_63_20" x1="50.7574" y1="25.8845" x2="37.7303" y2="22.1006" gradientUnits="userSpaceOnUse">
<stop offset="0.755208" stop-color="#34B039"/>
<stop offset="1" stop-color="#216C24"/>
</linearGradient>
<linearGradient id="paint3_linear_63_20" x1="17.7598" y1="4.01689" x2="26.5732" y2="14.3294" gradientUnits="userSpaceOnUse">
<stop offset="0.755208" stop-color="#34B039"/>
<stop offset="1" stop-color="#216C24"/>
</linearGradient>
<linearGradient id="paint4_linear_63_20" x1="8.34186" y1="15.5676" x2="21.5505" y2="18.6588" gradientUnits="userSpaceOnUse">
<stop offset="0.755208" stop-color="#34B039"/>
<stop offset="1" stop-color="#216C24"/>
</linearGradient>
<linearGradient id="paint5_linear_63_20" x1="8.22632" y1="31.8525" x2="19.983" y2="25.0845" gradientUnits="userSpaceOnUse">
<stop offset="0.755208" stop-color="#34B039"/>
<stop offset="1" stop-color="#216C24"/>
</linearGradient>
<radialGradient id="paint6_radial_63_20" cx="0" cy="0" r="1" gradientUnits="userSpaceOnUse" gradientTransform="translate(27.7467 21.8429) rotate(17.4299) scale(9.03162 9.29468)">
<stop offset="0.625" stop-color="#216C24"/>
<stop offset="0.822917" stop-color="#3FC544"/>
</radialGradient>
</defs>
</svg>